<svg width="200" height="145" viewBox="0 0 200 145" fill="none" xmlns="http://www.w3.org/2000/svg">
<path d="M65.8824 131.824L59.4118 140.882L18 111.765L55.5294 99.4706L36.7647 49L80.7647 67.7647L93.7059 16L119.588 67.7647L172 41.8823L146.765 99.4706L183 111.118L148.059 140.882L140.941 132.471L161 115.647L131.235 105.941L150 65.1764L114.412 82.647L96.9412 47.0588L88.5294 83.2941L55.5294 69.0588L69.7647 105.941L41.9412 115L65.8824 131.824Z" fill="#DB504A"/>
<path d="M120.235 129.235L137.059 140.235H70.4118L85.9412 131.176L63.9412 116.294H85.2941L75.5882 92.3529L95 107.235L99.5294 76.1764L111.824 107.882L129.941 91.7059L121.529 116.941H140.941L120.235 129.235Z" fill="#DB504A"/>
<path d="M136.501 120.379C136.347 119.842 136.271 119.305 136.271 118.769C136.271 118.232 136.271 117.81 136.271 117.504C136.271 117.197 136.577 117.044 137.191 117.044C137.881 117.044 139.951 118.385 143.401 121.069C146.851 123.675 148.499 125.4 148.346 126.244C148.192 127.01 146.237 128.045 142.481 129.349C138.724 130.575 135.772 131.189 133.626 131.189H130.291L133.511 127.509C135.044 125.822 135.964 124.595 136.271 123.829C136.577 123.062 136.654 121.912 136.501 120.379ZM82.6806 64.4888C82.9106 63.7988 83.3323 63.3388 83.9456 63.1088C84.5589 62.8021 85.6323 62.6488 87.1656 62.6488C89.5423 62.6488 90.9989 62.9171 91.5356 63.4538C92.0723 63.9905 91.7273 66.4055 90.5006 70.6988C89.2739 74.9921 88.2006 77.6755 87.2806 78.7488C86.4373 79.6688 85.4023 81.2788 84.1756 83.5788C82.9489 85.8021 82.3356 87.2205 82.3356 87.8338C82.3356 88.2171 83.1406 88.7538 84.7506 89.4438C86.4373 90.0571 87.8556 90.3638 89.0056 90.3638C90.0789 90.3638 91.7273 90.8621 93.9506 91.8588C95.4073 92.6255 96.3273 93.2388 96.7106 93.6988C97.0939 94.1588 97.2856 94.8871 97.2856 95.8838C97.2856 97.8005 96.9023 99.9088 96.1356 102.209C95.4456 104.509 94.6023 106.08 93.6056 106.924C92.5323 107.92 90.7306 108.61 88.2006 108.994C85.6706 109.3 83.7539 109.109 82.4506 108.419C81.7606 108.035 81.2623 107.92 80.9556 108.074C80.7256 108.15 80.5339 108.572 80.3806 109.339C79.0773 116.315 78.3873 124.327 78.3106 133.374C78.3106 140.274 78.0806 143.915 77.6206 144.299C76.8539 144.682 76.0106 144.567 75.0906 143.954C74.2473 143.264 73.4423 142.19 72.6756 140.734C72.0623 139.277 71.7173 137.514 71.6406 135.444C71.6406 133.297 71.8323 128.429 72.2156 120.839C72.7523 110.642 73.0206 104.509 73.0206 102.439C73.0206 100.369 72.7139 98.6055 72.1006 97.1488C71.4873 95.6921 71.4873 94.6571 72.1006 94.0438C72.4839 93.5838 73.0589 93.6221 73.8256 94.1588C74.5923 94.6955 75.3973 95.5771 76.2406 96.8038C77.0839 97.9538 77.8506 99.3338 78.5406 100.944C79.1539 102.324 79.6906 103.282 80.1506 103.819C80.6873 104.279 81.3006 104.509 81.9906 104.509C83.2173 104.509 84.9039 103.589 87.0506 101.749C89.1973 99.8321 90.2706 98.3371 90.2706 97.2638C90.2706 96.5738 89.8106 96.1138 88.8906 95.8838C87.9706 95.5771 85.5939 95.2321 81.7606 94.8488C80.1506 94.6188 78.8473 93.6988 77.8506 92.0888C76.9306 90.4021 76.4706 88.2938 76.4706 85.7638C76.4706 83.0038 75.3206 82.1988 73.0206 83.3488C70.7206 84.3455 68.3823 84.9205 66.0056 85.0738C63.6289 85.1505 62.3256 84.6905 62.0956 83.6938C61.9423 82.8505 62.1339 82.4288 62.6706 82.4288C64.3573 82.4288 67.8073 80.0521 73.0206 75.2988C78.3106 70.5455 81.5306 66.9421 82.6806 64.4888ZM110.626 58.1638C111.009 58.2405 111.354 58.3555 111.661 58.5088C111.967 58.6621 112.312 58.8155 112.696 58.9688C113.922 59.5055 115.034 60.6171 116.031 62.3038C117.104 63.9905 117.832 65.7921 118.216 67.7088C118.369 68.7821 118.561 69.5488 118.791 70.0088C119.097 70.3921 119.519 70.5071 120.056 70.3538C120.976 70.2005 121.321 69.0888 121.091 67.0188L120.976 64.0288L122.816 65.8688C124.119 67.0188 125.422 67.4405 126.726 67.1338C128.106 66.8271 129.562 66.9805 131.096 67.5938C132.706 68.2071 133.511 68.9355 133.511 69.7788C133.511 70.7755 132.897 71.4655 131.671 71.8488C130.751 72.1555 128.796 73.2288 125.806 75.0688C122.892 76.9088 120.746 78.4038 119.366 79.5538C118.292 80.5505 117.219 82.0455 116.146 84.0388C115.149 86.0321 114.651 87.4888 114.651 88.4088C114.651 89.3288 116.222 90.4405 119.366 91.7438C122.509 92.9705 125.461 93.7371 128.221 94.0438C130.827 94.2738 132.246 94.7721 132.476 95.5388C132.782 96.2288 131.594 97.8388 128.911 100.369L125.001 104.049V110.029C125.001 114.015 125.346 118.615 126.036 123.829C126.802 128.965 126.841 133.144 126.151 136.364C125.691 138.434 125.307 139.737 125.001 140.274C124.694 140.81 124.119 141.117 123.276 141.194C121.896 141.424 120.132 140.504 117.986 138.434C114.459 135.214 110.779 133.604 106.946 133.604C105.872 133.604 104.646 134.409 103.266 136.019C101.962 137.629 101.311 139.047 101.311 140.274C101.311 141.577 100.736 142.229 99.5856 142.229C98.5889 142.229 97.5539 141.845 96.4806 141.079C95.4839 140.235 94.9856 139.392 94.9856 138.549C94.9856 137.935 94.5639 137.322 93.7206 136.709C93.4139 136.402 93.1073 135.29 92.8006 133.374C92.5706 131.38 92.4939 129.502 92.5706 127.739C92.6473 125.899 92.9156 124.979 93.3756 124.979C93.7589 124.979 95.2156 125.439 97.7456 126.359L101.541 127.969L115.801 118.769L116.146 114.284C116.299 111.294 116.146 109.607 115.686 109.224C115.226 108.764 113.999 108.879 112.006 109.569C110.089 110.182 108.172 110.68 106.256 111.064C104.952 111.37 104.109 111.409 103.726 111.179C103.419 110.949 102.997 110.182 102.461 108.879C101.081 105.505 101.157 102.4 102.691 99.5638C103.764 97.7238 104.876 95.1938 106.026 91.9738C107.176 88.6771 107.597 86.8755 107.291 86.5688C106.984 86.2621 105.757 86.4155 103.611 87.0288C101.771 87.6421 100.544 87.8338 99.9306 87.6038C99.3173 87.2971 98.7423 86.3771 98.2056 84.8438C97.6689 83.4638 97.7456 81.9305 98.4356 80.2438C99.2023 78.5571 99.9306 77.7138 100.621 77.7138C101.081 77.6371 101.311 77.9821 101.311 78.7488C101.311 79.2088 101.349 79.5538 101.426 79.7838C101.579 79.9371 101.809 80.0138 102.116 80.0138C102.499 80.0138 102.959 79.8988 103.496 79.6688C104.109 79.4388 104.914 79.1321 105.911 78.7488C108.057 77.9055 109.246 77.0621 109.476 76.2188C109.706 75.3755 109.936 72.1938 110.166 66.6738C110.472 61.1538 110.626 58.3171 110.626 58.1638ZM113.846 93.3538C113.309 93.3538 112.389 94.8488 111.086 97.8388C109.859 100.752 109.361 102.439 109.591 102.899C109.974 103.512 110.932 103.435 112.466 102.669C113.999 101.902 114.881 101.135 115.111 100.369C115.417 99.2955 115.417 97.8771 115.111 96.1138C114.804 94.2738 114.382 93.3538 113.846 93.3538ZM117.066 124.059C117.066 121.452 116.836 120.072 116.376 119.919C115.839 119.612 114.612 120.532 112.696 122.679C110.779 124.749 109.821 126.205 109.821 127.049C109.821 127.739 109.974 128.199 110.281 128.429C110.664 128.659 111.316 128.774 112.236 128.774C114.306 128.774 115.609 128.505 116.146 127.969C116.759 127.432 117.066 126.129 117.066 124.059Z" fill="#4AD5DB"/>
<path d="M17.4109 79.5575C16.906 81.3602 16.0105 82.6297 14.7242 83.366C13.4268 84.0827 11.8768 84.1886 10.0742 83.6837L4.55076 82.1367C2.74813 81.6319 1.48632 80.7384 0.765346 79.4565C0.0332771 78.1548 -0.0803198 76.6027 0.424555 74.8C0.67052 73.9218 1.09613 73.1438 1.70138 72.4659C2.30663 71.788 3.03143 71.2765 3.87578 70.9315C4.02925 70.8582 4.18086 70.8508 4.33061 70.9093C4.48037 70.9679 4.59191 71.0739 4.66524 71.2274C4.71884 71.3919 4.71421 71.5568 4.65134 71.7219C4.57737 71.8674 4.47352 71.9712 4.33978 72.0335C3.6643 72.3095 3.08402 72.7202 2.59896 73.2656C2.11389 73.811 1.77427 74.4304 1.58009 75.1237C1.17878 76.5565 1.27206 77.7956 1.85993 78.8409C2.43671 79.8665 3.44154 80.5799 4.8744 80.9812L10.3979 82.5282C11.8307 82.9295 13.0676 82.8439 14.1086 82.2715C15.1385 81.6793 15.8541 80.6667 16.2554 79.2339C16.4496 78.5406 16.4887 77.8371 16.3729 77.1234C16.2417 76.4054 15.9592 75.753 15.5253 75.1663C15.428 75.0393 15.3932 74.8966 15.4209 74.7382C15.4376 74.5601 15.5192 74.4169 15.6659 74.3084C15.7929 74.211 15.9433 74.1784 16.1171 74.2104C16.2754 74.2382 16.4012 74.3232 16.4942 74.4656C17.0365 75.199 17.3902 76.0126 17.5553 76.9062C17.705 77.7955 17.6569 78.6793 17.4109 79.5575Z" fill="#F7F0F5"/>
<path d="M21.6931 67.2508C21.6176 67.3919 21.5003 67.4924 21.3412 67.5525C21.1896 67.5984 21.0433 67.5836 20.9022 67.5082L6.53315 59.8212C6.39207 59.7457 6.29856 59.6321 6.25264 59.4806C6.20015 59.3073 6.21165 59.1502 6.28712 59.0091C6.37014 58.8539 6.4945 58.7571 6.6602 58.7187C6.81178 58.6728 6.95812 58.6876 7.0992 58.7631L13.4055 62.1367L17.549 54.3914L11.2427 51.0177C11.1016 50.9423 11.0081 50.8287 10.9622 50.6771C10.9097 50.5039 10.9212 50.3467 10.9967 50.2057C11.0797 50.0505 11.2003 49.9607 11.3584 49.9365C11.51 49.8905 11.6564 49.9053 11.7974 49.9808L26.1665 57.6678C26.3076 57.7433 26.4011 57.8568 26.447 58.0084C26.5005 58.1459 26.4857 58.2922 26.4027 58.4474C26.3272 58.5885 26.2099 58.689 26.0508 58.7491C25.8992 58.795 25.7528 58.7802 25.6118 58.7047L18.6071 54.9575L14.4636 62.7028L21.4683 66.4501C21.6093 66.5255 21.7028 66.6391 21.7488 66.7906C21.7947 66.9422 21.7761 67.0956 21.6931 67.2508Z" fill="#F7F0F5"/>
<path d="M31.4219 50.6679C31.3183 50.7899 31.1824 50.8634 31.0142 50.8885C30.8442 50.8911 30.6981 50.8406 30.5761 50.7371L18.6828 40.6422C18.5608 40.5386 18.4933 40.4079 18.4804 40.25C18.4657 40.0696 18.51 39.9184 18.6136 39.7964L24.0648 33.374C24.1787 33.2398 24.3207 33.1715 24.4908 33.1689C24.6486 33.156 24.7886 33.2013 24.9105 33.3048C25.0325 33.4084 25.1061 33.5443 25.1312 33.7125C25.1441 33.8703 25.0936 34.0164 24.9797 34.1505L19.9167 40.1155L24.8388 44.2933L29.0476 39.3347C29.1511 39.2127 29.2818 39.1452 29.4397 39.1323C29.6079 39.1072 29.7591 39.1516 29.8933 39.2655C30.0153 39.369 30.0836 39.511 30.0984 39.6914C30.1113 39.8493 30.066 39.9892 29.9624 40.1112L25.7536 45.0698L30.8952 49.4339L35.9582 43.4689C36.0721 43.3347 36.208 43.2612 36.3659 43.2483C36.5237 43.2354 36.6698 43.2859 36.8039 43.3998C36.9259 43.5033 36.9995 43.6392 37.0246 43.8074C37.0375 43.9653 36.987 44.1113 36.8731 44.2455L31.4219 50.6679Z" fill="#F7F0F5"/>
<path d="M43.3821 38.3203C43.2547 38.4169 43.1061 38.4593 42.9364 38.4474C42.7795 38.4259 42.6527 38.3514 42.556 38.2239L32.7087 25.2396C32.525 24.9974 32.5237 24.7574 32.7048 24.5197C32.886 24.2819 33.124 24.2118 33.4189 24.3094C36.0355 25.297 38.272 26.1411 40.1286 26.8415C41.9979 27.5323 43.5402 28.1097 44.7555 28.5736C45.9836 29.0278 46.9503 29.389 47.6558 29.6572C48.3516 29.9127 48.8405 30.0941 49.1227 30.2014C49.4049 30.3087 49.546 30.3623 49.546 30.3623L40.9314 19.0035C40.8347 18.876 40.8035 18.729 40.8378 18.5624C40.8625 18.3831 40.9386 18.2451 41.066 18.1484C41.1935 18.0517 41.3406 18.0205 41.5071 18.0548C41.6641 18.0764 41.7909 18.1509 41.8875 18.2784L51.7348 31.2626C51.9089 31.4921 51.9117 31.7209 51.7433 31.949C51.5622 32.1867 51.329 32.2632 51.0437 32.1783C48.4272 31.1907 46.1907 30.3467 44.3341 29.6462C42.4775 28.9458 40.9352 28.3684 39.7071 27.9142C38.4791 27.46 37.5172 27.1051 36.8214 26.8496C36.1159 26.5814 35.6158 26.3985 35.3208 26.3009C35.0386 26.1936 34.8976 26.1399 34.8976 26.1399L43.5121 37.4987C43.6088 37.6262 43.6464 37.7684 43.6248 37.9254C43.6033 38.0823 43.5224 38.2139 43.3821 38.3203Z" fill="#F7F0F5"/>
<path d="M75.4865 20.9984C74.3332 21.3297 73.2574 21.3806 72.2593 21.1512C71.2766 20.9174 70.4232 20.4384 69.6991 19.7141C68.9751 18.9898 68.4496 18.0587 68.1228 16.9207L66.5857 11.5691C66.2545 10.4157 66.2057 9.34763 66.4395 8.36491C66.6689 7.3668 67.1381 6.50793 67.847 5.78828C68.5712 5.06421 69.51 4.53655 70.6634 4.20529C71.8168 3.87403 72.8848 3.8253 73.8676 4.05911C74.8657 4.2885 75.7267 4.76532 76.4508 5.48959C77.1705 6.19847 77.6959 7.1296 78.0272 8.28298L79.5642 13.6346C79.8911 14.7726 79.9398 15.8407 79.7104 16.8388C79.481 17.8369 79.0042 18.698 78.2799 19.422C77.571 20.1417 76.6399 20.6671 75.4865 20.9984ZM75.1553 19.845C76.078 19.58 76.8246 19.1658 77.3953 18.6024C77.9769 18.0192 78.3528 17.3286 78.5232 16.5305C78.7089 15.7281 78.6714 14.8732 78.4108 13.9659L76.8738 8.61423C76.6088 7.69154 76.1869 6.94707 75.6081 6.38085C75.0403 5.79483 74.3573 5.41665 73.5593 5.24633C72.7722 5.05621 71.9174 5.09365 70.9947 5.35866C70.072 5.62367 69.3198 6.04778 68.7382 6.63099C68.1676 7.19441 67.7894 7.87734 67.6037 8.67978C67.429 9.46243 67.4741 10.3151 67.7391 11.2378L69.2761 16.5894C69.5367 17.4968 69.9509 18.2434 70.5188 18.8295C71.102 19.4111 71.7871 19.7969 72.5742 19.987C73.3722 20.1574 74.2326 20.11 75.1553 19.845Z" fill="#F7F0F5"/>
<path d="M90.1569 17.9341C89.9971 17.9422 89.8505 17.8935 89.717 17.7881C89.5995 17.6819 89.5368 17.5488 89.5287 17.389L88.7256 1.44927C88.7175 1.28947 88.7666 1.15082 88.8728 1.03333C88.9942 0.899048 89.1348 0.827883 89.2946 0.819832L95.1912 0.522735C96.086 0.477647 96.9043 0.660704 97.6459 1.07191C98.4027 1.46632 99.0154 2.02019 99.4838 2.73352C99.9675 3.43007 100.231 4.21778 100.276 5.09667C100.314 5.84771 100.181 6.55928 99.8787 7.23135C99.5921 7.90263 99.1808 8.48406 98.6449 8.97565C98.1082 9.45126 97.4843 9.78708 96.7732 9.98311L100.828 16.5314C100.916 16.6871 100.94 16.8461 100.9 17.0083C100.859 17.1546 100.777 17.2709 100.653 17.3572C100.497 17.4452 100.338 17.4692 100.176 17.4293C100.03 17.3886 99.9133 17.2984 99.8262 17.1586L95.5101 10.1909L92.0105 10.3673C91.8507 10.3753 91.7041 10.3266 91.5706 10.2212C91.4523 10.099 91.3891 9.95801 91.3811 9.79821C91.3722 9.62244 91.4209 9.4758 91.5271 9.35831C91.6493 9.24001 91.7903 9.17683 91.9501 9.16878L95.6175 8.984C96.2886 8.95019 96.8878 8.75979 97.415 8.41283C97.9574 8.04907 98.3747 7.58749 98.6669 7.02807C98.9743 6.45187 99.1111 5.8282 99.0773 5.15705C99.0435 4.4859 98.8451 3.88713 98.4821 3.36072C98.1352 2.83352 97.674 2.42421 97.0986 2.13279C96.5384 1.82459 95.9227 1.6874 95.2515 1.72122L89.9543 1.98812L90.7272 17.3287C90.7353 17.4885 90.6862 17.6271 90.5799 17.7446C90.4737 17.8621 90.3327 17.9253 90.1569 17.9341Z" fill="#F7F0F5"/>
<path d="M109.351 17.6412C109.193 17.6136 109.061 17.5336 108.954 17.4012C108.866 17.2558 108.836 17.1043 108.863 16.9467L111.555 1.58067C111.582 1.42307 111.661 1.29877 111.791 1.20777C111.939 1.10378 112.092 1.06558 112.249 1.09319L117.072 1.93791C118.08 2.11459 118.95 2.52686 119.681 3.17473C120.415 3.80684 120.955 4.57545 121.3 5.48055C121.661 6.38841 121.753 7.34666 121.576 8.3553L120.595 13.958C120.418 14.9666 120.004 15.8444 119.354 16.5914C118.722 17.3253 117.952 17.8727 117.044 18.2335C116.139 18.5785 115.182 18.6626 114.173 18.486L109.351 17.6412ZM110.149 16.5628L114.38 17.304C115.168 17.442 115.918 17.3785 116.631 17.1134C117.346 16.8326 117.949 16.4022 118.441 15.8223C118.951 15.2294 119.275 14.539 119.413 13.751L120.394 8.14826C120.532 7.36026 120.461 6.60867 120.18 5.89349C119.915 5.18108 119.492 4.57916 118.912 4.08774C118.335 3.58055 117.653 3.25795 116.865 3.11992L112.633 2.37871L110.149 16.5628Z" fill="#F7F0F5"/>
<path d="M127.944 22.1971C127.797 22.1344 127.686 22.0265 127.613 21.8732C127.553 21.7263 127.555 21.5792 127.618 21.432L134.005 6.43987C134.124 6.1602 134.332 6.04 134.628 6.07928C134.925 6.11856 135.103 6.29045 135.165 6.59494C135.606 9.35669 135.983 11.7173 136.296 13.6768C136.624 15.6425 136.888 17.2681 137.088 18.5534C137.303 19.845 137.469 20.8636 137.586 21.6091C137.71 22.34 137.795 22.8545 137.842 23.1527C137.888 23.451 137.912 23.6001 137.912 23.6001L143.499 10.4847C143.562 10.3375 143.674 10.2375 143.836 10.1846C144.004 10.117 144.161 10.1146 144.309 10.1773C144.456 10.24 144.556 10.3522 144.609 10.5138C144.668 10.6608 144.666 10.8078 144.603 10.955L138.216 25.9472C138.103 26.2122 137.906 26.3281 137.625 26.2951C137.328 26.2558 137.146 26.0913 137.078 25.8015C136.637 23.0398 136.261 20.6792 135.947 18.7197C135.634 16.7602 135.37 15.1347 135.155 13.8431C134.94 12.5515 134.771 11.5403 134.648 10.8094C134.531 10.0639 134.441 9.53882 134.38 9.23432C134.333 8.9361 134.309 8.78698 134.309 8.78698L128.722 21.9024C128.659 22.0496 128.554 22.1527 128.407 22.2119C128.261 22.271 128.106 22.2661 127.944 22.1971Z" fill="#F7F0F5"/>
<path d="M145.186 30.2746C145.086 30.1408 145.053 29.997 145.087 29.8432C145.131 29.6765 145.226 29.548 145.373 29.4575L159.886 19.9887C160.129 19.8497 160.359 19.8612 160.578 20.0231C160.796 20.185 160.874 20.4022 160.812 20.6745L155.998 37.3301C155.955 37.4967 155.853 37.6205 155.693 37.7015C155.556 37.7791 155.409 37.7895 155.252 37.7328C155.098 37.6985 154.981 37.6016 154.9 37.4421C154.822 37.3049 154.805 37.153 154.849 36.9864L159.192 21.8936L151.21 27.0618L154.855 29.7622C154.984 29.8575 155.055 29.9899 155.069 30.1594C155.092 30.3161 155.051 30.4651 154.946 30.6065C154.851 30.7351 154.725 30.811 154.569 30.8343C154.412 30.8576 154.269 30.8217 154.141 30.7264L150.13 27.7545L146.017 30.4426C145.871 30.533 145.72 30.5611 145.567 30.5268C145.403 30.5053 145.276 30.4213 145.186 30.2746Z" fill="#F7F0F5"/>
<path d="M161.507 43.8202C161.404 43.6976 161.355 43.5513 161.358 43.3813C161.372 43.2235 161.44 43.0932 161.563 42.9903L174.045 32.5147C174.278 32.3192 174.518 32.3061 174.764 32.4753C175.011 32.6445 175.093 32.8788 175.01 33.1782C174.152 35.8402 173.419 38.1157 172.811 40.0045C172.214 41.9056 171.713 43.4746 171.31 44.7113C170.917 45.9602 170.603 46.9436 170.37 47.6614C170.149 48.369 169.992 48.8663 169.899 49.1534C169.806 49.4405 169.759 49.5841 169.759 49.5841L180.68 40.4198C180.802 40.317 180.947 40.2786 181.115 40.3046C181.296 40.3204 181.437 40.3896 181.54 40.5121C181.643 40.6347 181.681 40.78 181.655 40.9481C181.642 41.1059 181.573 41.2362 181.451 41.339L168.968 51.8147C168.747 51.9998 168.519 52.0139 168.283 51.857C168.037 51.6878 167.949 51.4587 168.019 51.1696C168.877 48.5075 169.609 46.2321 170.218 44.3432C170.826 42.4543 171.326 40.8854 171.719 39.6365C172.112 38.3875 172.419 37.4093 172.64 36.7017C172.873 35.9839 173.031 35.4753 173.114 35.1759C173.208 34.8888 173.254 34.7453 173.254 34.7453L162.334 43.9095C162.211 44.0124 162.071 44.0569 161.914 44.0431C161.756 44.0293 161.62 43.955 161.507 43.8202Z" fill="#F7F0F5"/>
<path d="M175.817 64.5573C174.962 62.8921 174.756 61.3522 175.198 59.9378C175.663 58.5302 176.727 57.3988 178.393 56.5436L183.495 53.9231C185.16 53.0679 186.693 52.8653 188.093 53.3153C189.515 53.7722 190.653 54.8333 191.509 56.4985C191.925 57.3098 192.142 58.1697 192.159 59.0783C192.176 59.9869 191.992 60.8548 191.608 61.6818C191.545 61.84 191.439 61.9484 191.289 62.0073C191.139 62.0662 190.986 62.0642 190.827 62.0016C190.676 61.9173 190.568 61.7933 190.501 61.6294C190.457 61.4724 190.462 61.3257 190.518 61.1891C190.826 60.5275 190.972 59.8318 190.957 59.102C190.942 58.3723 190.77 57.6872 190.441 57.0467C189.761 55.7231 188.851 54.8778 187.709 54.5109C186.589 54.1509 185.367 54.3108 184.043 54.9906L178.941 57.611C177.617 58.2908 176.768 59.1945 176.394 60.322C176.041 61.4564 176.205 62.6855 176.885 64.0091C177.214 64.6496 177.663 65.1921 178.233 65.6368C178.817 66.0742 179.468 66.3605 180.185 66.4959C180.343 66.5228 180.465 66.6038 180.553 66.7388C180.662 66.8807 180.699 67.0413 180.665 67.2206C180.638 67.3783 180.55 67.5045 180.401 67.5991C180.266 67.6865 180.116 67.7095 179.951 67.6684C179.055 67.4992 178.242 67.143 177.514 66.5999C176.799 66.0494 176.234 65.3686 175.817 64.5573Z" fill="#F7F0F5"/>
<path d="M181.305 76.4659C181.263 76.3116 181.279 76.1579 181.353 76.0049C181.447 75.863 181.571 75.7709 181.725 75.7287L196.771 71.6055C196.925 71.5632 197.071 71.5812 197.209 71.6597C197.366 71.7493 197.466 71.8712 197.508 72.0255L199.734 80.15C199.781 80.3197 199.757 80.4755 199.663 80.6174C199.585 80.755 199.469 80.8449 199.314 80.8872C199.16 80.9295 199.006 80.9136 198.853 80.8394C198.716 80.761 198.624 80.6369 198.577 80.4671L196.509 72.9214L190.283 74.6277L192.002 80.9005C192.044 81.0548 192.026 81.2007 191.948 81.3383C191.873 81.4914 191.751 81.5912 191.582 81.6377C191.427 81.68 191.272 81.6563 191.114 81.5667C190.977 81.4883 190.887 81.3719 190.844 81.2176L189.125 74.9449L182.621 76.7274L184.689 84.2732C184.736 84.4429 184.72 84.5966 184.641 84.7342C184.563 84.8718 184.439 84.9639 184.269 85.0104C184.115 85.0527 183.961 85.0368 183.808 84.9626C183.67 84.8842 183.578 84.7601 183.532 84.5903L181.305 76.4659Z" fill="#F7F0F5"/>
</svg>
